<svg xmlns="http://www.w3.org/2000/svg" version="1.1" xmlns:xlink="http://www.w3.org/1999/xlink" xmlns:svgjs="http://svgjs.dev/svgjs" width="1500" height="1500" viewBox="0 0 1500 1500"><g transform="matrix(1,0,0,1,-0.21332335329316265,-0.21332335329350371)"><svg viewBox="0 0 334 334" data-background-color="#dbefed" preserveAspectRatio="xMidYMid meet" height="1500" width="1500" xmlns="http://www.w3.org/2000/svg" xmlns:xlink="http://www.w3.org/1999/xlink"><g id="tight-bounds" transform="matrix(1,0,0,1,0.04749999999998522,0.04750000000001364)"><svg viewBox="0 0 333.90454557049503 333.90454557049503" height="333.90454557049503" width="333.90454557049503"><g><svg></svg></g><g><svg viewBox="0 0 333.90454557049503 333.90454557049503" height="333.90454557049503" width="333.90454557049503"><g><path d="M0 166.952c0-92.205 74.747-166.952 166.952-166.952 92.205 0 166.952 74.747 166.953 166.952 0 92.205-74.747 166.952-166.953 166.953-92.205 0-166.952-74.747-166.952-166.953zM166.952 329.692c89.879 0 162.74-72.861 162.74-162.74 0-89.879-72.861-162.74-162.74-162.739-89.879 0-162.74 72.861-162.739 162.739 0 89.879 72.861 162.74 162.739 162.74z" data-fill-palette-color="tertiary" fill="#001843" stroke="transparent"></path><ellipse rx="160.27418187383762" ry="160.27418187383762" cx="166.95227278524752" cy="166.95227278524752" fill="#001843" stroke="transparent" stroke-width="0" fill-opacity="1" data-fill-palette-color="tertiary"></ellipse></g><g transform="matrix(1,0,0,1,85.47468089864081,71.17305217166896)"><svg viewBox="0 0 162.9551837732134 191.55844122715712" height="191.55844122715712" width="162.9551837732134"><g><svg viewBox="0 0 162.9551837732134 191.55844122715712" height="191.55844122715712" width="162.9551837732134"><g><svg viewBox="0 0 213.1584412271571 250.57379452691467" height="191.55844122715712" width="162.9551837732134"><g transform="matrix(1,0,0,1,0,146.15766446756524)"><svg viewBox="0 0 213.1584412271571 104.41613005934943" height="104.41613005934943" width="213.1584412271571"><g id="textblocktransform"><svg viewBox="0 0 213.1584412271571 104.41613005934943" height="104.41613005934943" width="213.1584412271571" id="textblock"><g><svg viewBox="0 0 213.1584412271571 61.106371631093936" height="61.106371631093936" width="213.1584412271571"><g transform="matrix(1,0,0,1,0,0)"><svg width="213.1584412271571" viewBox="3.34 -31.35 109.35 31.35" height="61.106371631093936" data-palette-color="url(#ac92f329-88ef-44e5-9410-596f32bf27d4)"></svg></g></svg></g><g transform="matrix(1,0,0,1,0,75.53211942027608)"><svg viewBox="0 0 213.1584412271571 28.884010639073352" height="28.884010639073352" width="213.1584412271571"><g transform="matrix(1,0,0,1,0,0)"><svg width="213.1584412271571" viewBox="-1.2 -32.4 243.21361701940003 32.96" height="28.884010639073352" data-palette-color="url(#ac92f329-88ef-44e5-9410-596f32bf27d4)"></svg></g></svg></g></svg></g></svg></g><g transform="matrix(1,0,0,1,40.713262274387006,0)"><svg viewBox="0 0 131.7319166783831 131.7319166783831" height="131.7319166783831" width="131.7319166783831"><g><svg xmlns="http://www.w3.org/2000/svg" xmlns:xlink="http://www.w3.org/1999/xlink" version="1.1" x="0" y="0" viewBox="6 7 88 88" enable-background="new 0 0 100 100" xml:space="preserve" height="131.7319166783831" width="131.7319166783831" class="icon-icon-0" data-fill-palette-color="quaternary" id="icon-0"></svg></g></svg></g><g></g></svg></g></svg></g></svg></g></svg></g><defs></defs><mask id="84e34e13-ea9d-4ccd-80a7-20397f86036d"><g id="SvgjsG2547"><svg viewBox="0 0 333.90454557049503 333.90454557049503" height="333.90454557049503" width="333.90454557049503"><g><svg></svg></g><g><svg viewBox="0 0 333.90454557049503 333.90454557049503" height="333.90454557049503" width="333.90454557049503"><g><path d="M0 166.952c0-92.205 74.747-166.952 166.952-166.952 92.205 0 166.952 74.747 166.953 166.952 0 92.205-74.747 166.952-166.953 166.953-92.205 0-166.952-74.747-166.952-166.953zM166.952 329.692c89.879 0 162.74-72.861 162.74-162.74 0-89.879-72.861-162.74-162.74-162.739-89.879 0-162.74 72.861-162.739 162.739 0 89.879 72.861 162.74 162.739 162.74z" fill="black" stroke="transparent"></path><ellipse rx="160.27418187383762" ry="160.27418187383762" cx="166.95227278524752" cy="166.95227278524752" fill="black" stroke="transparent" stroke-width="0" fill-opacity="1"></ellipse></g><g transform="matrix(1,0,0,1,85.47468089864081,71.17305217166896)"><svg viewBox="0 0 162.9551837732134 191.55844122715712" height="191.55844122715712" width="162.9551837732134"><g><svg viewBox="0 0 162.9551837732134 191.55844122715712" height="191.55844122715712" width="162.9551837732134"><g><svg viewBox="0 0 213.1584412271571 250.57379452691467" height="191.55844122715712" width="162.9551837732134"><g transform="matrix(1,0,0,1,0,146.15766446756524)"><svg viewBox="0 0 213.1584412271571 104.41613005934943" height="104.41613005934943" width="213.1584412271571"><g id="SvgjsG2546"><svg viewBox="0 0 213.1584412271571 104.41613005934943" height="104.41613005934943" width="213.1584412271571" id="SvgjsSvg2545"><g><svg viewBox="0 0 213.1584412271571 61.106371631093936" height="61.106371631093936" width="213.1584412271571"><g transform="matrix(1,0,0,1,0,0)"><svg width="213.1584412271571" viewBox="3.34 -31.35 109.35 31.35" height="61.106371631093936" data-palette-color="url(#ac92f329-88ef-44e5-9410-596f32bf27d4)"><path d="M27.03 0L24.71-26.83 18.04-10.69 15.23-10.69 8.33-26.88 6.23 0 3.34 0 5.79-31.35 9.25-31.35 16.63-14.21 23.8-31.35 27.25-31.35 29.91 0 27.03 0ZM42.5-28.91L34.1-28.91 34.1-31.35 54.15-31.35 54.15-28.91 45.63-28.91 45.63 0 42.5 0 42.5-28.91ZM82.03 0L79.71-26.83 73.04-10.69 70.23-10.69 63.33-26.88 61.23 0 58.34 0 60.79-31.35 64.25-31.35 71.63-14.21 78.8-31.35 82.25-31.35 84.91 0 82.03 0ZM95.01-11.72L95.01 0 91.89 0 91.89-31.35 95.01-31.35 95.01-14.87 98.8-18.99 108.39-31.35 112.05-31.35 101.68-17.6 112.69 0 109.25 0 99.31-15.92 95.01-11.72Z" opacity="1" transform="matrix(1,0,0,1,0,0)" fill="white" class="wordmark-text-0" id="SvgjsPath2544"></path></svg></g></svg></g><g transform="matrix(1,0,0,1,0,75.53211942027608)"><svg viewBox="0 0 213.1584412271571 28.884010639073352" height="28.884010639073352" width="213.1584412271571"><g transform="matrix(1,0,0,1,0,0)"><svg width="213.1584412271571" viewBox="-1.2 -32.4 243.21361701940003 32.96" height="28.884010639073352" data-palette-color="url(#ac92f329-88ef-44e5-9410-596f32bf27d4)"><path d="M25.1-22.75L25.1-22.75Q24.15-18.14 20.8-15.89 17.46-13.65 12.26-13.65L12.26-13.65 5.05-13.65 2.15 0-1.2 0 5.54-31.86 16.04-31.86Q21.29-31.86 23.69-29.58 26.1-27.29 25.1-22.75ZM21.75-22.75L21.75-22.75Q22.46-26.05 20.7-27.53 18.95-29 15.5-29L15.5-29 8.3-29 5.64-16.5 12.84-16.5Q16.31-16.5 18.68-17.98 21.04-19.46 21.75-22.75ZM50.63-11.3L50.63-11.3Q50.05-8.64 48.74-6.47 47.43-4.3 45.54-2.75 43.65-1.2 41.25-0.32 38.84 0.56 36.13 0.56L36.13 0.56Q33.49 0.56 31.49-0.32 29.49-1.2 28.24-2.75 27-4.3 26.6-6.47 26.19-8.64 26.8-11.3L26.8-11.3Q27.34-13.89 28.67-16.13 30-18.36 31.89-19.93 33.79-21.51 36.19-22.4 38.6-23.29 41.23-23.29L41.23-23.29Q43.94-23.29 45.94-22.4 47.95-21.51 49.19-19.93 50.44-18.36 50.82-16.13 51.19-13.89 50.63-11.3ZM47.29-11.3L47.29-11.3Q47.7-13.26 47.47-14.9 47.24-16.55 46.36-17.8 45.48-19.04 44.04-19.75 42.6-20.46 40.6-20.46L40.6-20.46Q38.6-20.46 36.84-19.75 35.08-19.04 33.74-17.8 32.39-16.55 31.47-14.9 30.54-13.26 30.15-11.3L30.15-11.3Q29.68-9.35 29.92-7.7 30.15-6.05 30.99-4.86 31.83-3.66 33.29-2.98 34.74-2.29 36.74-2.29L36.74-2.29Q38.74-2.29 40.49-2.98 42.23-3.66 43.61-4.86 44.99-6.05 45.92-7.7 46.85-9.35 47.29-11.3ZM79.49-22.29L77.83-19.56Q76.19-20.46 73.68-20.46L73.68-20.46Q71.63-20.46 69.86-19.58 68.09-18.7 66.66-17.27 65.23-15.84 64.23-14 63.23-12.16 62.84-10.21L62.84-10.21 61.27-2.86 66.43-2.86 65.84 0 52.19 0 52.78-2.86 57.93-2.86 61.54-19.9 56.39-19.9 56.98-22.75 65.47-22.75 64.28-17.04Q67.94-23.29 74.34-23.29L74.34-23.29Q76.09-23.29 77.31-23.07 78.54-22.85 79.49-22.29L79.49-22.29ZM101.34-7.86L103.97-7.25Q102.82-3.66 99.96-1.55 97.09 0.56 93.43 0.56L93.43 0.56Q91.42 0.56 89.92-0.1 88.42-0.76 87.5-1.93 86.59-3.1 86.28-4.75 85.98-6.4 86.37-8.35L86.37-8.35 88.84-19.9 83.68-19.9 84.27-22.75 89.42-22.75 91.37-31.86 94.72-31.86 92.77-22.75 102.48-22.75 101.87-19.9 92.18-19.9 89.74-8.35Q89.47-7.1 89.63-6.01 89.79-4.91 90.34-4.08 90.89-3.25 91.8-2.77 92.72-2.29 94.04-2.29L94.04-2.29Q96.53-2.29 98.53-3.85 100.53-5.4 101.34-7.86L101.34-7.86ZM134.32-22.75L133.73-19.9 124.01-19.9 120.42-2.86 125.58-2.86 124.97 0 111.32 0 111.93-2.86 117.08-2.86 120.67-19.9 115.52-19.9 116.13-22.75 121.28-22.75Q122.28-27.44 125.22-29.92 128.16-32.4 133.07-32.4L133.07-32.4Q134.22-32.4 135.02-32.32 135.83-32.25 136.32-32.15L136.32-32.15 135.71-29.3Q135.02-29.39 134.27-29.47 133.51-29.54 132.46-29.54L132.46-29.54Q129.26-29.54 127.32-27.92 125.38-26.29 124.62-22.75L124.62-22.75 134.32-22.75ZM159.8-11.3L159.8-11.3Q159.22-8.64 157.91-6.47 156.6-4.3 154.71-2.75 152.82-1.2 150.41-0.32 148.01 0.56 145.3 0.56L145.3 0.56Q142.66 0.56 140.66-0.32 138.66-1.2 137.41-2.75 136.17-4.3 135.77-6.47 135.36-8.64 135.97-11.3L135.97-11.3Q136.51-13.89 137.84-16.13 139.17-18.36 141.06-19.93 142.96-21.51 145.36-22.4 147.77-23.29 150.4-23.29L150.4-23.29Q153.11-23.29 155.11-22.4 157.12-21.51 158.36-19.93 159.61-18.36 159.99-16.13 160.36-13.89 159.8-11.3ZM156.46-11.3L156.46-11.3Q156.87-13.26 156.64-14.9 156.41-16.55 155.53-17.8 154.65-19.04 153.21-19.75 151.77-20.46 149.77-20.46L149.77-20.46Q147.77-20.46 146.01-19.75 144.25-19.04 142.91-17.8 141.56-16.55 140.64-14.9 139.71-13.26 139.32-11.3L139.32-11.3Q138.85-9.35 139.09-7.7 139.32-6.05 140.16-4.86 141-3.66 142.46-2.98 143.91-2.29 145.91-2.29L145.91-2.29Q147.91-2.29 149.66-2.98 151.4-3.66 152.78-4.86 154.16-6.05 155.09-7.7 156.02-9.35 156.46-11.3ZM180.16-2.86L179.55 0 165.9 0 166.51-2.86 171.66-2.86 177.21-29 172.06-29 172.67-31.86 181.16-31.86 175.01-2.86 180.16-2.86ZM209.04-31.86L208.09-27.29 203.55-27.29 204.5-31.86 209.04-31.86ZM207.45-2.86L206.84 0 193.2 0 193.81-2.86 198.96-2.86 202.55-19.9 197.39-19.9 198-22.75 206.5-22.75 202.3-2.86 207.45-2.86ZM241.68-11.3L241.68-11.3Q241.09-8.64 239.79-6.47 238.48-4.3 236.59-2.75 234.7-1.2 232.29-0.32 229.89 0.56 227.18 0.56L227.18 0.56Q224.54 0.56 222.54-0.32 220.54-1.2 219.29-2.75 218.05-4.3 217.64-6.47 217.24-8.64 217.85-11.3L217.85-11.3Q218.39-13.89 219.72-16.13 221.05-18.36 222.94-19.93 224.83-21.51 227.24-22.4 229.64-23.29 232.28-23.29L232.28-23.29Q234.99-23.29 236.99-22.4 238.99-21.51 240.24-19.93 241.48-18.36 241.86-16.13 242.24-13.89 241.68-11.3ZM238.33-11.3L238.33-11.3Q238.75-13.26 238.52-14.9 238.29-16.55 237.41-17.8 236.53-19.04 235.09-19.75 233.65-20.46 231.65-20.46L231.65-20.46Q229.64-20.46 227.89-19.75 226.13-19.04 224.78-17.8 223.44-16.55 222.51-14.9 221.59-13.26 221.2-11.3L221.2-11.3Q220.73-9.35 220.96-7.7 221.2-6.05 222.04-4.86 222.88-3.66 224.33-2.98 225.79-2.29 227.79-2.29L227.79-2.29Q229.79-2.29 231.54-2.98 233.28-3.66 234.66-4.86 236.04-6.05 236.97-7.7 237.9-9.35 238.33-11.3Z" opacity="1" transform="matrix(1,0,0,1,0,0)" fill="white" class="slogan-text-1" id="SvgjsPath2543"></path></svg></g></svg></g></svg></g></svg></g><g transform="matrix(1,0,0,1,40.713262274387006,0)"><svg viewBox="0 0 131.7319166783831 131.7319166783831" height="131.7319166783831" width="131.7319166783831"><g><svg xmlns="http://www.w3.org/2000/svg" xmlns:xlink="http://www.w3.org/1999/xlink" version="1.1" x="0" y="0" viewBox="6 7 88 88" enable-background="new 0 0 100 100" xml:space="preserve" height="131.7319166783831" width="131.7319166783831" class="icon-icon-0" data-fill-palette-color="quaternary" id="SvgjsSvg2542"><g fill="white"><path d="M22.5 52H10C7.794 52 6 53.794 6 56V68.5C6 70.706 7.794 72.5 10 72.5H22.5C24.706 72.5 26.5 70.706 26.5 68.5V56C26.5 53.794 24.706 52 22.5 52M23.5 68.5C23.5 69.052 23.051 69.5 22.5 69.5H10C9.449 69.5 9 69.052 9 68.5V56C9 55.448 9.449 55 10 55H22.5C23.051 55 23.5 55.448 23.5 56z" fill="white"></path><path d="M45 52H32.5C30.294 52 28.5 53.794 28.5 56V68.5C28.5 70.706 30.294 72.5 32.5 72.5H45C47.206 72.5 49 70.706 49 68.5V56C49 53.794 47.206 52 45 52M46 68.5C46 69.052 45.551 69.5 45 69.5H32.5C31.949 69.5 31.5 69.052 31.5 68.5V56C31.5 55.448 31.949 55 32.5 55H45C45.551 55 46 55.448 46 56z" fill="white"></path><path d="M22.5 74.5H10C7.794 74.5 6 76.294 6 78.5V91C6 93.206 7.794 95 10 95H22.5C24.706 95 26.5 93.206 26.5 91V78.5C26.5 76.294 24.706 74.5 22.5 74.5M23.5 91C23.5 91.552 23.051 92 22.5 92H10C9.449 92 9 91.552 9 91V78.5C9 77.948 9.449 77.5 10 77.5H22.5C23.051 77.5 23.5 77.948 23.5 78.5z" fill="white"></path><path d="M45 74.5H32.5C30.294 74.5 28.5 76.294 28.5 78.5V91C28.5 93.206 30.294 95 32.5 95H45C47.206 95 49 93.206 49 91V78.5C49 76.294 47.206 74.5 45 74.5M46 91C46 91.552 45.551 92 45 92H32.5C31.949 92 31.5 91.552 31.5 91V78.5C31.5 77.948 31.949 77.5 32.5 77.5H45C45.551 77.5 46 77.948 46 78.5z" fill="white"></path><path d="M45 7H10C7.794 7 6 8.794 6 11V46C6 48.206 7.794 50 10 50H45C47.206 50 49 48.206 49 46V11C49 8.794 47.206 7 45 7M46 46C46 46.551 45.551 47 45 47H10C9.449 47 9 46.551 9 46V11C9 10.449 9.449 10 10 10H45C45.551 10 46 10.449 46 11z" fill="white"></path><path d="M90 7H55C52.794 7 51 8.794 51 11V91C51 93.206 52.794 95 55 95H90C92.206 95 94 93.206 94 91V11C94 8.794 92.206 7 90 7M91 91A1 1 0 0 1 90 92H55A1 1 0 0 1 54 91V11C54 10.449 54.448 10 55 10H90C90.552 10 91 10.449 91 11z" fill="white"></path></g></svg></g></svg></g><g></g></svg></g></svg></g></svg></g></svg></g><defs><mask></mask></defs></svg><rect width="333.90454557049503" height="333.90454557049503" fill="black" stroke="none" visibility="hidden"></rect></g></mask><linearGradient x1="0.054" x2="0.941" y1="0.5" y2="0.5" id="ac92f329-88ef-44e5-9410-596f32bf27d4"><stop stop-color="#0f3054" offset="0"></stop><stop stop-color="#3b8dcb" offset="0.498"></stop><stop stop-color="#0f3054" offset="1"></stop></linearGradient><rect width="333.905" height="333.905" fill="url(#ac92f329-88ef-44e5-9410-596f32bf27d4)" mask="url(#84e34e13-ea9d-4ccd-80a7-20397f86036d)" data-fill-palette-color="quaternary"></rect></svg><rect width="333.90454557049503" height="333.90454557049503" fill="none" stroke="none" visibility="hidden"></rect></g></svg></g></svg>